<svg width="372" height="165" viewBox="0 0 372 165" xmlns="http://www.w3.org/2000/svg"><path d="M11.894 129.183a7.717 7.717 0 0 1 8.212 0l7.788 4.835c2.541 1.577 4.106 4.492 4.106 7.647v9.67c0 3.155-1.565 6.07-4.106 7.647l-7.788 4.835a7.717 7.717 0 0 1-8.212 0l-7.788-4.835C1.566 157.405 0 154.49 0 151.335v-9.67c0-3.155 1.565-6.07 4.106-7.647l7.788-4.835z" fill="#FFF5EF"/><path d="M45.894 129.183a7.717 7.717 0 0 1 8.212 0l7.788 4.835c2.541 1.577 4.106 4.492 4.106 7.647v9.67c0 3.155-1.565 6.07-4.106 7.647l-7.788 4.835a7.717 7.717 0 0 1-8.212 0l-7.788-4.835C35.565 157.405 34 154.49 34 151.335v-9.67c0-3.155 1.565-6.07 4.106-7.647l7.788-4.835z" fill="#E3FFFD"/><path d="M79.894 129.183a7.717 7.717 0 0 1 8.212 0l7.788 4.835c2.541 1.577 4.106 4.492 4.106 7.647v9.67c0 3.155-1.565 6.07-4.106 7.647l-7.788 4.835a7.717 7.717 0 0 1-8.212 0l-7.788-4.835C69.565 157.405 68 154.49 68 151.335v-9.67c0-3.155 1.565-6.07 4.106-7.647l7.788-4.835z" fill="#FFF2F7"/><path d="M113.894 129.183a7.719 7.719 0 0 1 8.212 0l7.788 4.835c2.541 1.577 4.106 4.492 4.106 7.647v9.67c0 3.155-1.565 6.07-4.106 7.647l-7.788 4.835a7.719 7.719 0 0 1-8.212 0l-7.788-4.835c-2.541-1.577-4.106-4.492-4.106-7.647v-9.67c0-3.155 1.565-6.07 4.106-7.647l7.788-4.835z" fill="#EEFFED"/><path d="M147.894 129.183a7.719 7.719 0 0 1 8.212 0l7.788 4.835c2.541 1.577 4.106 4.492 4.106 7.647v9.67c0 3.155-1.565 6.07-4.106 7.647l-7.788 4.835a7.719 7.719 0 0 1-8.212 0l-7.788-4.835c-2.541-1.577-4.106-4.492-4.106-7.647v-9.67c0-3.155 1.565-6.07 4.106-7.647l7.788-4.835z" fill="#FFF5EF"/><path d="M181.894 129.183a7.719 7.719 0 0 1 8.212 0l7.788 4.835c2.541 1.577 4.106 4.492 4.106 7.647v9.67c0 3.155-1.565 6.07-4.106 7.647l-7.788 4.835a7.719 7.719 0 0 1-8.212 0l-7.788-4.835c-2.541-1.577-4.106-4.492-4.106-7.647v-9.67c0-3.155 1.565-6.07 4.106-7.647l7.788-4.835z" fill="#E3FFFD"/><path d="M215.894 129.183a7.719 7.719 0 0 1 8.212 0l7.788 4.835c2.541 1.577 4.106 4.492 4.106 7.647v9.67c0 3.155-1.565 6.07-4.106 7.647l-7.788 4.835a7.719 7.719 0 0 1-8.212 0l-7.788-4.835c-2.541-1.577-4.106-4.492-4.106-7.647v-9.67c0-3.155 1.565-6.07 4.106-7.647l7.788-4.835z" fill="#FFF2F7"/><path d="M249.894 129.183a7.719 7.719 0 0 1 8.212 0l7.788 4.835c2.541 1.577 4.106 4.492 4.106 7.647v9.67c0 3.155-1.565 6.07-4.106 7.647l-7.788 4.835a7.719 7.719 0 0 1-8.212 0l-7.788-4.835c-2.541-1.577-4.106-4.492-4.106-7.647v-9.67c0-3.155 1.565-6.07 4.106-7.647l7.788-4.835z" fill="#EEFFED"/><path d="M283.894 129.183a7.719 7.719 0 0 1 8.212 0l7.788 4.835c2.541 1.577 4.106 4.492 4.106 7.647v9.67c0 3.155-1.565 6.07-4.106 7.647l-7.788 4.835a7.719 7.719 0 0 1-8.212 0l-7.788-4.835c-2.541-1.577-4.106-4.492-4.106-7.647v-9.67c0-3.155 1.565-6.07 4.106-7.647l7.788-4.835z" fill="#FFF5EF"/><path d="M317.894 129.183a7.719 7.719 0 0 1 8.212 0l7.788 4.835c2.541 1.577 4.106 4.492 4.106 7.647v9.67c0 3.155-1.565 6.07-4.106 7.647l-7.788 4.835a7.719 7.719 0 0 1-8.212 0l-7.788-4.835c-2.541-1.577-4.106-4.492-4.106-7.647v-9.67c0-3.155 1.565-6.07 4.106-7.647l7.788-4.835z" fill="#E3FFFD"/><path d="M351.894 129.183a7.719 7.719 0 0 1 8.212 0l7.788 4.835c2.541 1.577 4.106 4.492 4.106 7.647v9.67c0 3.155-1.565 6.07-4.106 7.647l-7.788 4.835a7.719 7.719 0 0 1-8.212 0l-7.788-4.835c-2.541-1.577-4.106-4.492-4.106-7.647v-9.67c0-3.155 1.565-6.07 4.106-7.647l7.788-4.835zm-323-32a7.716 7.716 0 0 1 8.212 0l7.788 4.835c2.541 1.577 4.106 4.492 4.106 7.647v9.67c0 3.155-1.565 6.07-4.106 7.647l-7.788 4.835a7.717 7.717 0 0 1-8.212 0l-7.788-4.835C18.565 125.405 17 122.49 17 119.335v-9.67c0-3.155 1.565-6.07 4.106-7.647l7.788-4.835z" fill="#FFF2F7"/><path d="M62.894 97.183a7.716 7.716 0 0 1 8.212 0l7.788 4.835c2.541 1.577 4.106 4.492 4.106 7.647v9.67c0 3.155-1.565 6.07-4.106 7.647l-7.788 4.835a7.717 7.717 0 0 1-8.212 0l-7.788-4.835C52.565 125.405 51 122.49 51 119.335v-9.67c0-3.155 1.565-6.07 4.106-7.647l7.788-4.835z" fill="#EEFFED"/><path d="M96.894 97.183a7.717 7.717 0 0 1 8.212 0l7.788 4.835c2.541 1.577 4.106 4.492 4.106 7.647v9.67c0 3.155-1.565 6.07-4.106 7.647l-7.788 4.835a7.718 7.718 0 0 1-8.212 0l-7.788-4.835C86.565 125.405 85 122.49 85 119.335v-9.67c0-3.155 1.565-6.07 4.106-7.647l7.788-4.835z" fill="#FFF5EF"/><path d="M130.894 97.183a7.718 7.718 0 0 1 8.212 0l7.788 4.835c2.541 1.577 4.106 4.492 4.106 7.647v9.67c0 3.155-1.565 6.07-4.106 7.647l-7.788 4.835a7.719 7.719 0 0 1-8.212 0l-7.788-4.835c-2.541-1.577-4.106-4.492-4.106-7.647v-9.67c0-3.155 1.565-6.07 4.106-7.647l7.788-4.835z" fill="#E3FFFD"/><path d="M164.894 97.183a7.718 7.718 0 0 1 8.212 0l7.788 4.835c2.541 1.577 4.106 4.492 4.106 7.647v9.67c0 3.155-1.565 6.07-4.106 7.647l-7.788 4.835a7.719 7.719 0 0 1-8.212 0l-7.788-4.835c-2.541-1.577-4.106-4.492-4.106-7.647v-9.67c0-3.155 1.565-6.07 4.106-7.647l7.788-4.835z" fill="#FFF2F7"/><path d="M198.894 97.183a7.718 7.718 0 0 1 8.212 0l7.788 4.835c2.541 1.577 4.106 4.492 4.106 7.647v9.67c0 3.155-1.565 6.07-4.106 7.647l-7.788 4.835a7.719 7.719 0 0 1-8.212 0l-7.788-4.835c-2.541-1.577-4.106-4.492-4.106-7.647v-9.67c0-3.155 1.565-6.07 4.106-7.647l7.788-4.835z" fill="#EEFFED"/><path d="M232.894 97.183a7.718 7.718 0 0 1 8.212 0l7.788 4.835c2.541 1.577 4.106 4.492 4.106 7.647v9.67c0 3.155-1.565 6.07-4.106 7.647l-7.788 4.835a7.719 7.719 0 0 1-8.212 0l-7.788-4.835c-2.541-1.577-4.106-4.492-4.106-7.647v-9.67c0-3.155 1.565-6.07 4.106-7.647l7.788-4.835z" fill="#FFF5EF"/><path d="M266.894 97.183a7.718 7.718 0 0 1 8.212 0l7.788 4.835c2.541 1.577 4.106 4.492 4.106 7.647v9.67c0 3.155-1.565 6.07-4.106 7.647l-7.788 4.835a7.719 7.719 0 0 1-8.212 0l-7.788-4.835c-2.541-1.577-4.106-4.492-4.106-7.647v-9.67c0-3.155 1.565-6.07 4.106-7.647l7.788-4.835z" fill="#E3FFFD"/><path d="M300.894 97.183a7.718 7.718 0 0 1 8.212 0l7.788 4.835c2.541 1.577 4.106 4.492 4.106 7.647v9.67c0 3.155-1.565 6.07-4.106 7.647l-7.788 4.835a7.719 7.719 0 0 1-8.212 0l-7.788-4.835c-2.541-1.577-4.106-4.492-4.106-7.647v-9.67c0-3.155 1.565-6.07 4.106-7.647l7.788-4.835z" fill="#FFF2F7"/><path d="M334.894 97.183a7.718 7.718 0 0 1 8.212 0l7.788 4.835c2.541 1.577 4.106 4.492 4.106 7.647v9.67c0 3.155-1.565 6.07-4.106 7.647l-7.788 4.835a7.719 7.719 0 0 1-8.212 0l-7.788-4.835c-2.541-1.577-4.106-4.492-4.106-7.647v-9.67c0-3.155 1.565-6.07 4.106-7.647l7.788-4.835z" fill="#EEFFED"/><path d="M11.894 65.183a7.716 7.716 0 0 1 8.212 0l7.788 4.835C30.435 71.596 32 74.51 32 77.665v9.67c0 3.155-1.565 6.07-4.106 7.647l-7.788 4.835a7.718 7.718 0 0 1-8.212 0l-7.788-4.835C1.566 93.404 0 90.49 0 87.335v-9.67c0-3.155 1.565-6.07 4.106-7.647l7.788-4.835z" fill="#FFF5EF"/><path d="M45.894 65.183a7.716 7.716 0 0 1 8.212 0l7.788 4.835C64.435 71.596 66 74.51 66 77.665v9.67c0 3.155-1.565 6.07-4.106 7.647l-7.788 4.835a7.718 7.718 0 0 1-8.212 0l-7.788-4.835C35.565 93.404 34 90.49 34 87.335v-9.67c0-3.155 1.565-6.07 4.106-7.647l7.788-4.835z" fill="#E3FFFD"/><path d="M79.894 65.183a7.716 7.716 0 0 1 8.212 0l7.788 4.835C98.435 71.596 100 74.51 100 77.665v9.67c0 3.155-1.565 6.07-4.106 7.647l-7.788 4.835a7.718 7.718 0 0 1-8.212 0l-7.788-4.835C69.565 93.404 68 90.49 68 87.335v-9.67c0-3.155 1.565-6.07 4.106-7.647l7.788-4.835z" fill="#FFF2F7"/><path d="M113.894 65.183a7.718 7.718 0 0 1 8.212 0l7.788 4.835c2.541 1.578 4.106 4.492 4.106 7.647v9.67c0 3.155-1.565 6.07-4.106 7.647l-7.788 4.835a7.719 7.719 0 0 1-8.212 0l-7.788-4.835C103.565 93.404 102 90.49 102 87.335v-9.67c0-3.155 1.565-6.07 4.106-7.647l7.788-4.835z" fill="#EEFFED"/><path d="M147.894 65.183a7.718 7.718 0 0 1 8.212 0l7.788 4.835c2.541 1.578 4.106 4.492 4.106 7.647v9.67c0 3.155-1.565 6.07-4.106 7.647l-7.788 4.835a7.719 7.719 0 0 1-8.212 0l-7.788-4.835C137.565 93.404 136 90.49 136 87.335v-9.67c0-3.155 1.565-6.07 4.106-7.647l7.788-4.835z" fill="#FFF5EF"/><path d="M181.894 65.183a7.718 7.718 0 0 1 8.212 0l7.788 4.835c2.541 1.578 4.106 4.492 4.106 7.647v9.67c0 3.155-1.565 6.07-4.106 7.647l-7.788 4.835a7.719 7.719 0 0 1-8.212 0l-7.788-4.835C171.565 93.404 170 90.49 170 87.335v-9.67c0-3.155 1.565-6.07 4.106-7.647l7.788-4.835z" fill="#E3FFFD"/><path d="M215.894 65.183a7.718 7.718 0 0 1 8.212 0l7.788 4.835c2.541 1.578 4.106 4.492 4.106 7.647v9.67c0 3.155-1.565 6.07-4.106 7.647l-7.788 4.835a7.719 7.719 0 0 1-8.212 0l-7.788-4.835C205.565 93.404 204 90.49 204 87.335v-9.67c0-3.155 1.565-6.07 4.106-7.647l7.788-4.835z" fill="#FFF2F7"/><path d="M249.894 65.183a7.718 7.718 0 0 1 8.212 0l7.788 4.835c2.541 1.578 4.106 4.492 4.106 7.647v9.67c0 3.155-1.565 6.07-4.106 7.647l-7.788 4.835a7.719 7.719 0 0 1-8.212 0l-7.788-4.835C239.565 93.404 238 90.49 238 87.335v-9.67c0-3.155 1.565-6.07 4.106-7.647l7.788-4.835z" fill="#EEFFED"/><path d="M283.894 65.183a7.718 7.718 0 0 1 8.212 0l7.788 4.835c2.541 1.578 4.106 4.492 4.106 7.647v9.67c0 3.155-1.565 6.07-4.106 7.647l-7.788 4.835a7.719 7.719 0 0 1-8.212 0l-7.788-4.835C273.565 93.404 272 90.49 272 87.335v-9.67c0-3.155 1.565-6.07 4.106-7.647l7.788-4.835z" fill="#FFF5EF"/><path d="M317.894 65.183a7.718 7.718 0 0 1 8.212 0l7.788 4.835c2.541 1.578 4.106 4.492 4.106 7.647v9.67c0 3.155-1.565 6.07-4.106 7.647l-7.788 4.835a7.719 7.719 0 0 1-8.212 0l-7.788-4.835C307.565 93.404 306 90.49 306 87.335v-9.67c0-3.155 1.565-6.07 4.106-7.647l7.788-4.835z" fill="#E3FFFD"/><path d="M351.894 65.183a7.718 7.718 0 0 1 8.212 0l7.788 4.835c2.541 1.578 4.106 4.492 4.106 7.647v9.67c0 3.155-1.565 6.07-4.106 7.647l-7.788 4.835a7.719 7.719 0 0 1-8.212 0l-7.788-4.835C341.565 93.404 340 90.49 340 87.335v-9.67c0-3.155 1.565-6.07 4.106-7.647l7.788-4.835zm-323-32a7.716 7.716 0 0 1 8.212 0l7.788 4.835C47.435 39.596 49 42.51 49 45.665v9.67c0 3.155-1.565 6.07-4.106 7.647l-7.788 4.835a7.716 7.716 0 0 1-8.212 0l-7.788-4.835C18.565 61.404 17 58.49 17 55.335v-9.67c0-3.155 1.565-6.07 4.106-7.647l7.788-4.835z" fill="#FFF2F7"/><path d="M62.894 33.183a7.716 7.716 0 0 1 8.212 0l7.788 4.835C81.435 39.596 83 42.51 83 45.665v9.67c0 3.155-1.565 6.07-4.106 7.647l-7.788 4.835a7.716 7.716 0 0 1-8.212 0l-7.788-4.835C52.565 61.404 51 58.49 51 55.335v-9.67c0-3.155 1.565-6.07 4.106-7.647l7.788-4.835z" fill="#EEFFED"/><path d="M96.894 33.183a7.717 7.717 0 0 1 8.212 0l7.788 4.835c2.541 1.578 4.106 4.492 4.106 7.647v9.67c0 3.155-1.565 6.07-4.106 7.647l-7.788 4.835a7.717 7.717 0 0 1-8.212 0l-7.788-4.835C86.565 61.404 85 58.49 85 55.335v-9.67c0-3.155 1.565-6.07 4.106-7.647l7.788-4.835z" fill="#FFF5EF"/><path d="M130.894 33.183a7.718 7.718 0 0 1 8.212 0l7.788 4.835c2.541 1.578 4.106 4.492 4.106 7.647v9.67c0 3.155-1.565 6.07-4.106 7.647l-7.788 4.835a7.718 7.718 0 0 1-8.212 0l-7.788-4.835C120.565 61.404 119 58.49 119 55.335v-9.67c0-3.155 1.565-6.07 4.106-7.647l7.788-4.835z" fill="#E3FFFD"/><path d="M164.894 33.183a7.718 7.718 0 0 1 8.212 0l7.788 4.835c2.541 1.578 4.106 4.492 4.106 7.647v9.67c0 3.155-1.565 6.07-4.106 7.647l-7.788 4.835a7.718 7.718 0 0 1-8.212 0l-7.788-4.835C154.565 61.404 153 58.49 153 55.335v-9.67c0-3.155 1.565-6.07 4.106-7.647l7.788-4.835z" fill="#FFF2F7"/><path d="M198.894 33.183a7.718 7.718 0 0 1 8.212 0l7.788 4.835c2.541 1.578 4.106 4.492 4.106 7.647v9.67c0 3.155-1.565 6.07-4.106 7.647l-7.788 4.835a7.718 7.718 0 0 1-8.212 0l-7.788-4.835C188.565 61.404 187 58.49 187 55.335v-9.67c0-3.155 1.565-6.07 4.106-7.647l7.788-4.835z" fill="#EEFFED"/><path d="M232.894 33.183a7.718 7.718 0 0 1 8.212 0l7.788 4.835c2.541 1.578 4.106 4.492 4.106 7.647v9.67c0 3.155-1.565 6.07-4.106 7.647l-7.788 4.835a7.718 7.718 0 0 1-8.212 0l-7.788-4.835C222.565 61.404 221 58.49 221 55.335v-9.67c0-3.155 1.565-6.07 4.106-7.647l7.788-4.835z" fill="#FFF5EF"/><path d="M266.894 33.183a7.718 7.718 0 0 1 8.212 0l7.788 4.835c2.541 1.578 4.106 4.492 4.106 7.647v9.67c0 3.155-1.565 6.07-4.106 7.647l-7.788 4.835a7.718 7.718 0 0 1-8.212 0l-7.788-4.835C256.565 61.404 255 58.49 255 55.335v-9.67c0-3.155 1.565-6.07 4.106-7.647l7.788-4.835z" fill="#E3FFFD"/><path d="M300.894 33.183a7.718 7.718 0 0 1 8.212 0l7.788 4.835c2.541 1.578 4.106 4.492 4.106 7.647v9.67c0 3.155-1.565 6.07-4.106 7.647l-7.788 4.835a7.718 7.718 0 0 1-8.212 0l-7.788-4.835C290.565 61.404 289 58.49 289 55.335v-9.67c0-3.155 1.565-6.07 4.106-7.647l7.788-4.835z" fill="#FFF2F7"/><path d="M334.894 33.183a7.718 7.718 0 0 1 8.212 0l7.788 4.835c2.541 1.578 4.106 4.492 4.106 7.647v9.67c0 3.155-1.565 6.07-4.106 7.647l-7.788 4.835a7.718 7.718 0 0 1-8.212 0l-7.788-4.835C324.565 61.404 323 58.49 323 55.335v-9.67c0-3.155 1.565-6.07 4.106-7.647l7.788-4.835z" fill="#EEFFED"/><path d="M11.894 1.183a7.716 7.716 0 0 1 8.212 0l7.788 4.835C30.435 7.595 32 10.51 32 13.665v9.67c0 3.155-1.565 6.07-4.106 7.647l-7.788 4.835a7.716 7.716 0 0 1-8.212 0l-7.788-4.835C1.566 29.404 0 26.49 0 23.335v-9.67c0-3.155 1.565-6.07 4.106-7.647l7.788-4.835z" fill="#FFF5EF"/><path d="M45.894 1.183a7.716 7.716 0 0 1 8.212 0l7.788 4.835C64.435 7.595 66 10.51 66 13.665v9.67c0 3.155-1.565 6.07-4.106 7.647l-7.788 4.835a7.716 7.716 0 0 1-8.212 0l-7.788-4.835C35.565 29.404 34 26.49 34 23.335v-9.67c0-3.155 1.565-6.07 4.106-7.647l7.788-4.835z" fill="#E3FFFD"/><path d="M79.894 1.183a7.716 7.716 0 0 1 8.212 0l7.788 4.835C98.435 7.595 100 10.51 100 13.665v9.67c0 3.155-1.565 6.07-4.106 7.647l-7.788 4.835a7.716 7.716 0 0 1-8.212 0l-7.788-4.835C69.565 29.404 68 26.49 68 23.335v-9.67c0-3.155 1.565-6.07 4.106-7.647l7.788-4.835z" fill="#FFF2F7"/><path d="M113.894 1.183a7.718 7.718 0 0 1 8.212 0l7.788 4.835C132.435 7.595 134 10.51 134 13.665v9.67c0 3.155-1.565 6.07-4.106 7.647l-7.788 4.835a7.718 7.718 0 0 1-8.212 0l-7.788-4.835C103.565 29.404 102 26.49 102 23.335v-9.67c0-3.155 1.565-6.07 4.106-7.647l7.788-4.835z" fill="#EEFFED"/><path d="M147.894 1.183a7.718 7.718 0 0 1 8.212 0l7.788 4.835C166.435 7.595 168 10.51 168 13.665v9.67c0 3.155-1.565 6.07-4.106 7.647l-7.788 4.835a7.718 7.718 0 0 1-8.212 0l-7.788-4.835C137.565 29.404 136 26.49 136 23.335v-9.67c0-3.155 1.565-6.07 4.106-7.647l7.788-4.835z" fill="#FFF5EF"/><path d="M181.894 1.183a7.718 7.718 0 0 1 8.212 0l7.788 4.835C200.435 7.595 202 10.51 202 13.665v9.67c0 3.155-1.565 6.07-4.106 7.647l-7.788 4.835a7.718 7.718 0 0 1-8.212 0l-7.788-4.835C171.565 29.404 170 26.49 170 23.335v-9.67c0-3.155 1.565-6.07 4.106-7.647l7.788-4.835z" fill="#E3FFFD"/><path d="M215.894 1.183a7.718 7.718 0 0 1 8.212 0l7.788 4.835C234.435 7.595 236 10.51 236 13.665v9.67c0 3.155-1.565 6.07-4.106 7.647l-7.788 4.835a7.718 7.718 0 0 1-8.212 0l-7.788-4.835C205.565 29.404 204 26.49 204 23.335v-9.67c0-3.155 1.565-6.07 4.106-7.647l7.788-4.835z" fill="#FFF2F7"/><path d="M249.894 1.183a7.718 7.718 0 0 1 8.212 0l7.788 4.835C268.435 7.595 270 10.51 270 13.665v9.67c0 3.155-1.565 6.07-4.106 7.647l-7.788 4.835a7.718 7.718 0 0 1-8.212 0l-7.788-4.835C239.565 29.404 238 26.49 238 23.335v-9.67c0-3.155 1.565-6.07 4.106-7.647l7.788-4.835z" fill="#EEFFED"/><path d="M283.894 1.183a7.718 7.718 0 0 1 8.212 0l7.788 4.835C302.435 7.595 304 10.51 304 13.665v9.67c0 3.155-1.565 6.07-4.106 7.647l-7.788 4.835a7.718 7.718 0 0 1-8.212 0l-7.788-4.835C273.565 29.404 272 26.49 272 23.335v-9.67c0-3.155 1.565-6.07 4.106-7.647l7.788-4.835z" fill="#FFF5EF"/><path d="M317.894 1.183a7.718 7.718 0 0 1 8.212 0l7.788 4.835C336.435 7.595 338 10.51 338 13.665v9.67c0 3.155-1.565 6.07-4.106 7.647l-7.788 4.835a7.718 7.718 0 0 1-8.212 0l-7.788-4.835C307.565 29.404 306 26.49 306 23.335v-9.67c0-3.155 1.565-6.07 4.106-7.647l7.788-4.835z" fill="#E3FFFD"/><path d="M351.894 1.183a7.718 7.718 0 0 1 8.212 0l7.788 4.835C370.435 7.595 372 10.51 372 13.665v9.67c0 3.155-1.565 6.07-4.106 7.647l-7.788 4.835a7.718 7.718 0 0 1-8.212 0l-7.788-4.835C341.565 29.404 340 26.49 340 23.335v-9.67c0-3.155 1.565-6.07 4.106-7.647l7.788-4.835z" fill="#FFF2F7"/></svg>